<!-- Generated by IcoMoon.io -->
<svg version="1.1" xmlns="http://www.w3.org/2000/svg" width="22" height="20" viewBox="0 0 22 20">
<title>arts</title>
<path d="M16.325 0.209l-5.193 9.347h10.386l-5.193-9.347zM4.34 0.679c-2.446 0-4.439 1.993-4.439 4.439s1.993 4.439 4.439 4.439c2.446 0 4.439-1.993 4.439-4.439s-1.993-4.439-4.439-4.439zM4.34 1.567c1.966 0 3.551 1.585 3.551 3.551s-1.585 3.551-3.551 3.551c-1.966 0-3.551-1.585-3.551-3.551s1.585-3.551 3.551-3.551zM16.325 2.036l3.684 6.632h-7.369l3.684-6.632zM-0.098 11.332v8.877h8.877v-8.877h-8.877zM16.325 11.332c-1.466 0-2.663 1.198-2.663 2.663 0 0.906 0.53 1.585 1.226 2.067-1.489 0.581-2.557 2.012-2.557 3.704v0.444h7.99v-0.444c0-1.692-1.067-3.124-2.557-3.705 0.695-0.482 1.226-1.159 1.226-2.065 0-1.466-1.198-2.663-2.663-2.663zM0.789 12.219h7.102v7.102h-7.102v-7.102zM16.325 12.219c0.986 0 1.775 0.79 1.775 1.775s-0.79 1.775-1.775 1.775c-0.986 0-1.775-0.79-1.775-1.775s0.79-1.775 1.775-1.775zM16.325 16.658c1.564 0 2.796 1.163 3.019 2.663h-6.036c0.223-1.5 1.453-2.663 3.017-2.663z"></path>
</svg>
