<!-- Generated by IcoMoon.io -->
<svg version="1.1" xmlns="http://www.w3.org/2000/svg" width="20" height="20" viewBox="0 0 20 20">
<title>card</title>
<path d="M0.098 3.938v12.125h19.783v-12.125h-19.783zM0.736 4.576h18.507v10.849h-18.507v-10.849zM5.203 6.49c-1.054 0-1.915 0.861-1.915 1.915 0 0.651 0.381 1.139 0.881 1.486-1.070 0.418-1.838 1.446-1.838 2.662v0.319h5.743v-0.319c0-1.216-0.767-2.246-1.838-2.663 0.5-0.346 0.881-0.833 0.881-1.484 0-1.054-0.861-1.915-1.915-1.915zM5.203 7.128c0.709 0 1.276 0.568 1.276 1.276s-0.568 1.276-1.276 1.276c-0.709 0-1.276-0.568-1.276-1.276s0.568-1.276 1.276-1.276zM9.67 7.447v0.638h7.658v-0.638h-7.658zM9.67 9.362v0.638h7.658v-0.638h-7.658zM5.203 10.319c1.124 0 2.010 0.836 2.17 1.915h-4.339c0.16-1.078 1.045-1.915 2.169-1.915zM9.67 11.276v0.638h7.658v-0.638h-7.658z"></path>
</svg>
