<!-- Generated by IcoMoon.io -->
<svg version="1.1" xmlns="http://www.w3.org/2000/svg" width="20" height="20" viewBox="0 0 20 20">
<title>mag-glass</title>
<path d="M11.847 0.22c-2.121 0-4.244 0.808-5.86 2.424-3.109 3.109-3.148 8.050-0.274 11.301l-5.584 5.586 0.689 0.689 5.584-5.586c3.251 2.874 8.194 2.835 11.303-0.274 3.232-3.232 3.232-8.485 0-11.716-1.616-1.616-3.737-2.424-5.858-2.424zM11.847 1.187c1.87 0 3.739 0.716 5.169 2.146 2.859 2.859 2.859 7.479 0 10.338s-7.481 2.859-10.34 0c-2.859-2.859-2.859-7.479 0-10.338 1.43-1.43 3.301-2.146 5.171-2.146z"></path>
</svg>
