<!-- Generated by IcoMoon.io -->
<svg version="1.1" xmlns="http://www.w3.org/2000/svg" width="20" height="20" viewBox="0 0 20 20">
<title>magnifying-glass</title>
<path d="M2.455 15.467l3.779-3.779c-0.57-0.935-0.898-2.035-0.898-3.21 0-3.417 2.961-6.377 6.378-6.377s6.186 2.769 6.186 6.186c0 3.416-2.961 6.377-6.377 6.377-1.137 0-2.2-0.309-3.115-0.844l-3.799 3.801c-0.372 0.371-0.975 0.371-1.346 0l-0.943-0.943c-0.371-0.371-0.236-0.84 0.135-1.211zM15.996 8.287c0-2.366-1.917-4.283-4.282-4.283s-4.474 2.107-4.474 4.474c0 2.365 1.918 4.283 4.283 4.283s4.473-2.109 4.473-4.474z"></path>
</svg>
