<!-- Generated by IcoMoon.io -->
<svg version="1.1" xmlns="http://www.w3.org/2000/svg" width="20" height="20" viewBox="0 0 20 20">
<title>search</title>
<path d="M0.62 17.019l4.737-4.029c0.49-0.441 1.013-0.643 1.437-0.624-1.118-1.31-1.794-3.009-1.794-4.867 0-4.142 3.358-7.5 7.5-7.5s7.5 3.358 7.5 7.5-3.358 7.5-7.5 7.5c-1.857 0-3.557-0.676-4.867-1.794 0.020 0.423-0.183 0.947-0.624 1.437l-4.029 4.737c-0.69 0.767-1.817 0.831-2.504 0.144s-0.623-1.814 0.144-2.504zM12.5 12.5c2.761 0 5-2.239 5-5s-2.239-5-5-5-5 2.239-5 5 2.239 5 5 5z"></path>
</svg>
