<!-- Generated by IcoMoon.io -->
<svg version="1.1" xmlns="http://www.w3.org/2000/svg" width="20" height="20" viewBox="0 0 20 20">
<title>tickets</title>
<path d="M-0.068 4v3.2h0.4c1.551 0 2.8 1.249 2.8 2.8s-1.249 2.8-2.8 2.8h-0.4v3.2h20v-3.212l-0.298-0.078c-1.202-0.314-2.091-1.404-2.091-2.709s0.889-2.396 2.091-2.709l0.298-0.078v-3.212h-20zM0.732 4.8h8.8v1.6h0.8v-1.6h8.8v1.914c-1.365 0.513-2.389 1.746-2.389 3.286s1.024 2.773 2.389 3.286v1.914h-8.8v-1.6h-0.8v1.6h-8.8v-1.681c1.787-0.209 3.2-1.677 3.2-3.519s-1.413-3.31-3.2-3.519v-1.681zM9.532 7.2v2.4h0.8v-2.4h-0.8zM9.532 10.4v2.4h0.8v-2.4h-0.8z"></path>
</svg>
