<svg aria-hidden="true" style="position: absolute; width: 0; height: 0; overflow: hidden;" version="1.1" xmlns="http://www.w3.org/2000/svg" xmlns:xlink="http://www.w3.org/1999/xlink">
<defs>
<symbol id="icon-calendar" viewBox="0 0 19 20">
<path d="M4.608 0v1.481h-4.444v16.667c0 1.018 0.833 1.852 1.852 1.852h14.815c1.018 0 1.852-0.833 1.852-1.852v-16.667h-4.074v-1.481h-0.741v1.481h-8.519v-1.481h-0.741zM0.905 2.222h3.704v1.481h0.741v-1.481h8.519v1.481h0.741v-1.481h3.333v2.963h-17.037v-2.963zM0.905 5.926h3.704v2.593h-3.704v-2.593zM5.349 5.926h4.074v2.593h-4.074v-2.593zM10.164 5.926h3.704v2.593h-3.704v-2.593zM14.608 5.926h3.333v2.593h-3.333v-2.593zM0.905 9.259h3.704v2.963h-3.704v-2.963zM5.349 9.259h4.074v2.963h-4.074v-2.963zM10.164 9.259h3.704v2.963h-3.704v-2.963zM14.608 9.259h3.333v2.963h-3.333v-2.963zM0.905 12.963h3.704v2.593h-3.704v-2.593zM5.349 12.963h4.074v2.593h-4.074v-2.593zM10.164 12.963h3.704v2.593h-3.704v-2.593zM14.608 12.963h3.333v2.593h-3.333v-2.593zM0.905 16.296h3.704v2.963h-2.593c-0.618 0-1.111-0.493-1.111-1.111v-1.852zM5.349 16.296h4.074v2.963h-4.074v-2.963zM10.164 16.296h3.704v2.963h-3.704v-2.963zM14.608 16.296h3.333v1.852c0 0.618-0.493 1.111-1.111 1.111h-2.222v-2.963z"></path>
</symbol>
<symbol id="icon-arts" viewBox="0 0 22 20">
<path d="M16.325 0.209l-5.193 9.347h10.386l-5.193-9.347zM4.34 0.679c-2.446 0-4.439 1.993-4.439 4.439s1.993 4.439 4.439 4.439c2.446 0 4.439-1.993 4.439-4.439s-1.993-4.439-4.439-4.439zM4.34 1.567c1.966 0 3.551 1.585 3.551 3.551s-1.585 3.551-3.551 3.551c-1.966 0-3.551-1.585-3.551-3.551s1.585-3.551 3.551-3.551zM16.325 2.036l3.684 6.632h-7.369l3.684-6.632zM-0.098 11.332v8.877h8.877v-8.877h-8.877zM16.325 11.332c-1.466 0-2.663 1.198-2.663 2.663 0 0.906 0.53 1.585 1.226 2.067-1.489 0.581-2.557 2.012-2.557 3.704v0.444h7.99v-0.444c0-1.692-1.067-3.124-2.557-3.705 0.695-0.482 1.226-1.159 1.226-2.065 0-1.466-1.198-2.663-2.663-2.663zM0.789 12.219h7.102v7.102h-7.102v-7.102zM16.325 12.219c0.986 0 1.775 0.79 1.775 1.775s-0.79 1.775-1.775 1.775c-0.986 0-1.775-0.79-1.775-1.775s0.79-1.775 1.775-1.775zM16.325 16.658c1.564 0 2.796 1.163 3.019 2.663h-6.036c0.223-1.5 1.453-2.663 3.017-2.663z"></path>
</symbol>
<symbol id="icon-tickets" viewBox="0 0 20 20">
<path d="M-0.068 4v3.2h0.4c1.551 0 2.8 1.249 2.8 2.8s-1.249 2.8-2.8 2.8h-0.4v3.2h20v-3.212l-0.298-0.078c-1.202-0.314-2.091-1.404-2.091-2.709s0.889-2.396 2.091-2.709l0.298-0.078v-3.212h-20zM0.732 4.8h8.8v1.6h0.8v-1.6h8.8v1.914c-1.365 0.513-2.389 1.746-2.389 3.286s1.024 2.773 2.389 3.286v1.914h-8.8v-1.6h-0.8v1.6h-8.8v-1.681c1.787-0.209 3.2-1.677 3.2-3.519s-1.413-3.31-3.2-3.519v-1.681zM9.532 7.2v2.4h0.8v-2.4h-0.8zM9.532 10.4v2.4h0.8v-2.4h-0.8z"></path>
</symbol>
<symbol id="icon-card" viewBox="0 0 20 20">
<path d="M0.098 3.938v12.125h19.783v-12.125h-19.783zM0.736 4.576h18.507v10.849h-18.507v-10.849zM5.203 6.49c-1.054 0-1.915 0.861-1.915 1.915 0 0.651 0.381 1.139 0.881 1.486-1.070 0.418-1.838 1.446-1.838 2.662v0.319h5.743v-0.319c0-1.216-0.767-2.246-1.838-2.663 0.5-0.346 0.881-0.833 0.881-1.484 0-1.054-0.861-1.915-1.915-1.915zM5.203 7.128c0.709 0 1.276 0.568 1.276 1.276s-0.568 1.276-1.276 1.276c-0.709 0-1.276-0.568-1.276-1.276s0.568-1.276 1.276-1.276zM9.67 7.447v0.638h7.658v-0.638h-7.658zM9.67 9.362v0.638h7.658v-0.638h-7.658zM5.203 10.319c1.124 0 2.010 0.836 2.17 1.915h-4.339c0.16-1.078 1.045-1.915 2.169-1.915zM9.67 11.276v0.638h7.658v-0.638h-7.658z"></path>
</symbol>
<symbol id="icon-gift" viewBox="0 0 16 20">
<path d="M8.064 4.961c-0.212 0 0.46 0 0 0z"></path>
<path d="M8.022 4.625c0 0-0 0.672 0 0.672s0.001 0 0.003 0c0.004 0 0.015 0 0.039 0 0.027 0 0.060 0 0.093 0 0.019 0 0.069 0 0.071 0 0 0 0-0.672 0-0.672-0.002 0-0.052 0-0.071 0-0.033 0-0.066 0-0.093 0s-0.039 0-0.042 0z"></path>
<path d="M8.064 4.961c0.212 0-0.46 0 0 0z"></path>
<path d="M7.9 4.625c0 0-0 0.672 0 0.672 0.005 0 0.049 0 0.164 0 0.007 0 0.019 0 0.025 0s0.016 0 0.017 0c0 0 0-0.672 0-0.672-0.001 0-0.012 0-0.017 0s-0.018 0-0.025 0c-0.115 0-0.159 0-0.164 0z"></path>
<path d="M4.919 0.094c-0.548-0.077-1.119 0.122-1.586 0.601-0.491 0.502-0.573 1.156-0.34 1.699s0.709 1.011 1.282 1.422c0.452 0.324 0.983 0.573 1.505 0.808h-5.778v15.453h16.125v-15.453h-5.778c0.522-0.235 1.053-0.484 1.505-0.808 0.573-0.412 1.049-0.879 1.282-1.422s0.151-1.197-0.34-1.699c-0.467-0.479-1.039-0.678-1.586-0.601s-1.051 0.398-1.501 0.852c-0.711 0.716-1.252 1.821-1.644 3.009-0.393-1.188-0.933-2.293-1.644-3.009-0.45-0.453-0.953-0.774-1.501-0.852zM4.825 0.758c0.343 0.049 0.734 0.274 1.118 0.66 0.666 0.671 1.238 1.831 1.601 3.071-0.872-0.174-2.014-0.599-2.876-1.218-0.516-0.37-0.904-0.785-1.056-1.14s-0.138-0.618 0.202-0.966c0.353-0.361 0.669-0.455 1.012-0.407zM11.304 0.758c0.343-0.049 0.659 0.046 1.012 0.407 0.34 0.348 0.354 0.611 0.202 0.966s-0.541 0.77-1.056 1.14c-0.862 0.619-2.005 1.044-2.876 1.218 0.363-1.24 0.935-2.4 1.601-3.071 0.384-0.386 0.775-0.612 1.118-0.66zM0.674 5.297h6.972l-0.005 0.024 0.088-0.005v6.7h-7.055v-6.719zM8.483 5.297h6.972v6.719h-7.055v-6.7l0.088 0.005-0.005-0.024zM0.674 12.687h7.055v6.719h-7.055v-6.719zM8.4 12.687h7.055v6.719h-7.055v-6.719z"></path>
</symbol>
<symbol id="icon-box" viewBox="0 0 18 20">
<path d="M8.947-0l-8.845 3.833v12.334l8.845 3.833 8.845-3.833v-11.63c0 0 0-0.636 0-0.704l-0.568-0.246zM8.947 1.205l6.983 3.027-6.983 3.492-6.983-3.492zM1.208 5.090l7.186 3.593v9.873l-7.186-3.114zM16.687 5.090v10.352l-7.186 3.114v-9.873z"></path>
</symbol>
<symbol id="icon-mag-glass" viewBox="0 0 20 20">
<path d="M11.847 0.22c-2.121 0-4.244 0.808-5.86 2.424-3.109 3.109-3.148 8.050-0.274 11.301l-5.584 5.586 0.689 0.689 5.584-5.586c3.251 2.874 8.194 2.835 11.303-0.274 3.232-3.232 3.232-8.485 0-11.716-1.616-1.616-3.737-2.424-5.858-2.424zM11.847 1.187c1.87 0 3.739 0.716 5.169 2.146 2.859 2.859 2.859 7.479 0 10.338s-7.481 2.859-10.34 0c-2.859-2.859-2.859-7.479 0-10.338 1.43-1.43 3.301-2.146 5.171-2.146z"></path>
</symbol>
</defs>
</svg>
