<svg aria-hidden="true" style="position: absolute; width: 0; height: 0; overflow: hidden;" version="1.1" xmlns="http://www.w3.org/2000/svg" xmlns:xlink="http://www.w3.org/1999/xlink">
<defs>
<symbol id="icon-calendar" viewBox="0 0 20 20">
<path d="M17 3h-1v2h-3v-2h-6v2h-3v-2h-1c-1.101 0-2 0.9-2 2v12c0 1.1 0.899 2 2 2h14c1.1 0 2-0.9 2-2v-12c0-1.1-0.9-2-2-2zM17 17h-14v-8h14v8zM6.5 1h-2v3.5h2v-3.5zM15.5 1h-2v3.5h2v-3.5z"></path>
</symbol>
<symbol id="icon-images" viewBox="0 0 20 20">
<path d="M17.125 6.17l-2.046-5.635c-0.151-0.416-0.595-0.637-0.989-0.492l-13.598 4.963c-0.394 0.144-0.593 0.597-0.441 1.013l2.156 5.941v-3.183c0-1.438 1.148-2.607 2.56-2.607h3.593l4.285-3.008 2.479 3.008h2.001zM19.238 8h-14.471c-0.42 0-0.762 0.334-0.762 0.777v9.42c0.001 0.444 0.343 0.803 0.762 0.803h14.471c0.42 0 0.762-0.359 0.762-0.803v-9.42c0-0.443-0.342-0.777-0.762-0.777zM18 17h-12v-2l1.984-4.018 2.768 3.436 2.598-2.662 3.338-1.205 1.312 3.449v3z"></path>
</symbol>
<symbol id="icon-magnifying-glass" viewBox="0 0 20 20">
<path d="M2.455 15.467l3.779-3.779c-0.57-0.935-0.898-2.035-0.898-3.21 0-3.417 2.961-6.377 6.378-6.377s6.186 2.769 6.186 6.186c0 3.416-2.961 6.377-6.377 6.377-1.137 0-2.2-0.309-3.115-0.844l-3.799 3.801c-0.372 0.371-0.975 0.371-1.346 0l-0.943-0.943c-0.371-0.371-0.236-0.84 0.135-1.211zM15.996 8.287c0-2.366-1.917-4.283-4.282-4.283s-4.474 2.107-4.474 4.474c0 2.365 1.918 4.283 4.283 4.283s4.473-2.109 4.473-4.474z"></path>
</symbol>
<symbol id="icon-ticket" viewBox="0 0 20 20">
<path d="M4.906 11.541l3.551 3.553 6.518-6.518-3.553-3.551-6.516 6.516zM19.104 6.664l-1.511-1.512c-0.289 0.156-0.618 0.246-0.969 0.246-1.118 0-2.024-0.906-2.024-2.023 0-0.352 0.089-0.682 0.246-0.969l-1.511-1.512c-0.394-0.393-1.038-0.393-1.432 0l-11.010 11.010c-0.393 0.392-0.393 1.037 0 1.432l1.512 1.51c0.289-0.156 0.618-0.246 0.97-0.246 1.117 0 2.023 0.906 2.023 2.025 0 0.35-0.089 0.68-0.246 0.969l1.512 1.51c0.394 0.394 1.037 0.394 1.432 0l11.008-11.008c0.394-0.395 0.394-1.039 0-1.432zM8.457 16.719l-5.176-5.178 8.142-8.141 5.176 5.176-8.142 8.143z"></path>
</symbol>
<symbol id="icon-v-card" viewBox="0 0 20 20">
<path d="M19 3h-18c-0.553 0-1 0.447-1 1v12c0 0.552 0.447 1 1 1h18c0.553 0 1-0.448 1-1v-12c0-0.552-0.447-1-1-1zM13 7h4v1h-4v-1zM11 14.803c-0.129-0.102-0.293-0.201-0.529-0.303-1.18-0.508-2.961-1.26-2.961-2.176 0-0.551 0.359-0.371 0.518-1.379 0.066-0.418 0.385-0.007 0.445-0.961 0-0.38-0.174-0.475-0.174-0.475s0.088-0.562 0.123-0.996c0.036-0.453-0.221-1.8-1.277-2.097-0.186-0.188-0.311-0.111 0.258-0.412-1.244-0.059-1.534 0.592-2.196 1.071-0.564 0.42-0.717 1.085-0.689 1.439 0.037 0.433 0.125 0.996 0.125 0.996s-0.175 0.094-0.175 0.474c0.061 0.954 0.38 0.543 0.445 0.961 0.158 1.008 0.519 0.828 0.519 1.379 0 0.916-1.781 1.668-2.961 2.176-0.203 0.088-0.349 0.173-0.471 0.26v-9.76h9v9.803zM18 11h-5v-1h5v1z"></path>
</symbol>
<symbol id="icon-images1" viewBox="0 0 23 20">
<path d="M21.25 2.5h-1.25v-1.25c0-0.688-0.563-1.25-1.25-1.25h-17.5c-0.688 0-1.25 0.563-1.25 1.25v15c0 0.688 0.563 1.25 1.25 1.25h1.25v1.25c0 0.688 0.563 1.25 1.25 1.25h17.5c0.688 0 1.25-0.563 1.25-1.25v-15c0-0.688-0.563-1.25-1.25-1.25zM2.5 3.75v12.5h-1.248c-0.001-0.001-0.002-0.001-0.002-0.002v-14.996c0.001-0.001 0.001-0.002 0.002-0.002h17.496c0.001 0.001 0.002 0.001 0.002 0.002v1.248h-15c-0.688 0-1.25 0.563-1.25 1.25v0zM21.25 18.748c-0.001 0.001-0.001 0.002-0.002 0.002h-17.496c-0.001-0.001-0.002-0.001-0.002-0.002v-14.996c0.001-0.001 0.001-0.002 0.002-0.002h17.496c0.001 0.001 0.002 0.001 0.002 0.002v14.995z"></path>
<path d="M18.75 6.875c0 1.036-0.839 1.875-1.875 1.875s-1.875-0.839-1.875-1.875 0.839-1.875 1.875-1.875 1.875 0.839 1.875 1.875z"></path>
<path d="M20 17.5h-15v-2.5l4.375-7.5 5 6.25h1.25l4.375-3.75z"></path>
</symbol>
<symbol id="icon-stack" viewBox="0 0 20 20">
<path d="M20 6.25l-10-5-10 5 10 5 10-5zM10 2.91l6.681 3.34-6.681 3.34-6.681-3.34 6.681-3.34zM17.997 8.998l2.003 1.002-10 5-10-5 2.003-1.002 7.997 3.998zM17.997 12.748l2.003 1.002-10 5-10-5 2.003-1.002 7.997 3.998z"></path>
</symbol>
<symbol id="icon-ticket1" viewBox="0 0 20 20">
<path d="M11.25 6.25l2.5 2.5-5 5-2.5-2.5zM19.561 5.811l-1.436-1.436-0.625 0.625c-0.32 0.32-0.762 0.518-1.25 0.518-0.976 0-1.768-0.791-1.768-1.768 0-0.488 0.198-0.93 0.518-1.25l0.625-0.625-1.436-1.436c-0.585-0.585-1.543-0.585-2.128 0l-11.622 11.622c-0.585 0.585-0.585 1.543 0 2.128l1.436 1.436 0.624-0.624c0.32-0.32 0.762-0.519 1.251-0.519 0.976 0 1.768 0.791 1.768 1.768 0 0.488-0.198 0.93-0.518 1.25l-0.625 0.625 1.436 1.436c0.585 0.585 1.543 0.585 2.128 0l11.622-11.622c0.585-0.585 0.585-1.543 0-2.129zM8.75 16.25l-5-5 7.5-7.5 5 5-7.5 7.5z"></path>
</symbol>
<symbol id="icon-calendar1" viewBox="0 0 20 20">
<path d="M6.25 7.5h2.5v2.5h-2.5zM10 7.5h2.5v2.5h-2.5zM13.75 7.5h2.5v2.5h-2.5zM2.5 15h2.5v2.5h-2.5zM6.25 15h2.5v2.5h-2.5zM10 15h2.5v2.5h-2.5zM6.25 11.25h2.5v2.5h-2.5zM10 11.25h2.5v2.5h-2.5zM13.75 11.25h2.5v2.5h-2.5zM2.5 11.25h2.5v2.5h-2.5zM16.25 0v1.25h-2.5v-1.25h-8.75v1.25h-2.5v-1.25h-2.5v20h18.75v-20h-2.5zM17.5 18.75h-16.25v-13.75h16.25v13.75z"></path>
</symbol>
<symbol id="icon-search" viewBox="0 0 20 20">
<path d="M0.62 17.019l4.737-4.029c0.49-0.441 1.013-0.643 1.437-0.624-1.118-1.31-1.794-3.009-1.794-4.867 0-4.142 3.358-7.5 7.5-7.5s7.5 3.358 7.5 7.5-3.358 7.5-7.5 7.5c-1.857 0-3.557-0.676-4.867-1.794 0.020 0.423-0.183 0.947-0.624 1.437l-4.029 4.737c-0.69 0.767-1.817 0.831-2.504 0.144s-0.623-1.814 0.144-2.504zM12.5 12.5c2.761 0 5-2.239 5-5s-2.239-5-5-5-5 2.239-5 5 2.239 5 5 5z"></path>
</symbol>
<symbol id="icon-gift" viewBox="0 0 20 20">
<path d="M15.069 6.25c0.354-0.252 0.694-0.532 1.005-0.843 0.652-0.652 1.089-1.455 1.229-2.26 0.153-0.883-0.072-1.702-0.618-2.248-0.436-0.436-1.026-0.666-1.706-0.666-0.969 0-1.991 0.465-2.802 1.277-1.298 1.298-2.055 3.091-2.462 4.37-0.302-1.285-0.902-3.020-2.071-4.189-0.627-0.627-1.428-0.949-2.184-0.949-0.618 0-1.207 0.215-1.646 0.654-0.976 0.976-0.844 2.691 0.295 3.83 0.406 0.406 0.881 0.743 1.381 1.024h-4.239v5h1.25v8.75h15v-8.75h1.25v-5h-3.681zM13.17 2.504c0.541-0.541 1.217-0.865 1.808-0.865 0.209 0 0.502 0.044 0.712 0.254 0.508 0.508 0.223 1.686-0.611 2.519-0.858 0.858-2.013 1.449-3.016 1.837h-0.99c0.363-1.124 1.017-2.665 2.097-3.746zM4.569 3.142c-0.014-0.178-0.001-0.513 0.238-0.752 0.2-0.2 0.465-0.242 0.651-0.242v0c0.415 0 0.849 0.196 1.19 0.537 0.662 0.662 1.206 1.714 1.576 3.044 0.010 0.036 0.020 0.072 0.029 0.107-0.035-0.009-0.071-0.019-0.107-0.029-1.33-0.369-2.383-0.914-3.044-1.576-0.309-0.309-0.503-0.706-0.533-1.090zM8.75 18.75h-5v-8.125h5v8.125zM8.75 10h-6.25v-2.5h6.25v2.5zM16.25 18.75h-5v-8.125h5v8.125zM17.5 10h-6.25v-2.5h6.25v2.5z"></path>
</symbol>
<symbol id="icon-table2" viewBox="0 0 20 20">
<path d="M0 1.25v17.5h20v-17.5h-20zM7.5 12.5v-3.75h5v3.75h-5zM12.5 13.75v3.75h-5v-3.75h5zM12.5 3.75v3.75h-5v-3.75h5zM6.25 3.75v3.75h-5v-3.75h5zM1.25 8.75h5v3.75h-5v-3.75zM13.75 8.75h5v3.75h-5v-3.75zM13.75 7.5v-3.75h5v3.75h-5zM1.25 13.75h5v3.75h-5v-3.75zM13.75 17.5v-3.75h5v3.75h-5z"></path>
</symbol>
</defs>
</svg>
